[Header]
FileType HTR
DataType HTRS
FileVersion 1
NumSegments 22
NumFrames 8
DataFrameRate 24
EulerRotationOrder ZYX
CalibrationUnits mm
RotationUnits Degrees
GlobalAxisofGravity Y
BoneLengthAxis Y
ScaleFactor 1.0
[SegmentNames&Hierarchy]
reference	GLOBAL
Hips	reference
Spine	Hips
Spine1	Spine
Neck	Spine1
Head	Neck
LeftShoulder	Spine1
LeftArm	LeftShoulder
LeftForeArm	LeftArm
LeftHand	LeftForeArm
RightShoulder	Spine1
RightArm	RightShoulder
RightForeArm	RightArm
RightHand	RightForeArm
LeftUpLeg	Hips
LeftLeg	LeftUpLeg
LeftFoot	LeftLeg
LeftToeBase	LeftFoot
RightUpLeg	Hips
RightLeg	RightUpLeg
RightFoot	RightLeg
RightToeBase	RightFoot
[BasePosition]
reference	0	0	0	0	0	0	1
Hips	0	0	0	0	0	0	1
Spine	0	0	0	0	-0	90	1
Spine1	0	0	0	0	0	0	1
Neck	0	0	0	-7.352327771	-7.352327771	90	1
Head	0	0	0	0	-0	90	1
LeftShoulder	0	0	0	0	0	0	1
LeftArm	0	0	0	0	0	0	1
LeftForeArm	0	0	0	0	0	0	1
LeftHand	0	0	0	0	0	0	1
RightShoulder	0	0	0	0	-0	180	1
RightArm	0	0	0	0	-0	180	1
RightForeArm	0	0	0	0	-0	180	1
RightHand	0	0	0	0	-0	180	1
LeftUpLeg	0	0	0	0	-0	-90	1
LeftLeg	0	0	0	0	-0	-90	1
LeftFoot	0	0	0	66.57146043	-66.57146043	-90	1
LeftToeBase	0	0	0	0	-90	0	1
RightUpLeg	0	0	0	0	-0	-90	1
RightLeg	0	0	0	0	-0	-90	1
RightFoot	0	0	0	66.57146043	-66.57146043	-90	1
RightToeBase	0	0	0	0	-90	0	1
[reference]
55	0	0	0	0	-0	0	1.0
56	0	0	0	0	-0	0	1.0
57	0	0	0	0	-0	0	1.0
58	0	0	0	0	-0	0	1.0
59	0	0	0	0	-0	0	1.0
60	0	0	0	0	-0	0	1.0
61	0	0	0	0	-0	0	1.0
62	0	0	0	0	-0	0	1.0
[Hips]
55	-0.08209999651	8.176620483	3.348899364	-0.6585996747	-73.04212189	2.416953802	1.0
56	-0.2995358706	8.156785965	3.463482857	-1.961015224	-71.57293701	3.195452452	1.0
57	-0.5132129788	8.205658913	3.563392401	-0.820900023	-70.8186264	1.899209619	1.0
58	-0.7252669334	8.266260147	3.657623529	1.338749766	-70.5239563	-0.109181121	1.0
59	-0.942741096	8.287590981	3.749876976	4.392978668	-69.58835602	-2.748228312	1.0
60	-1.182274222	8.299497604	3.844534874	6.256264687	-68.50363159	-4.01549387	1.0
61	-1.444679976	8.306139946	3.955822229	6.327710629	-67.18764496	-3.605713367	1.0
62	-1.71959424	8.247126579	4.061810493	4.6779809	-65.30662537	-1.911244392	1.0
[Spine]
55	0	0.7457100153	0	-7.816818237	1.562767267	-92.64343262	1.0
56	0	0.7457100153	0	-7.25078392	1.552545428	-93.2504425	1.0
57	0	0.7457100153	0	-6.620471478	1.762688637	-92.60620117	1.0
58	0	0.7457100153	0	-6.068270206	2.208460808	-91.72725677	1.0
59	0	0.7457100153	0	-5.310034752	2.19942379	-90.86228943	1.0
60	0	0.7457100153	0	-5.024481297	1.896514297	-90.31764221	1.0
61	0	0.7457100153	0	-5.04888773	1.416521668	-90.66561127	1.0
62	0	0.7457100153	0	-5.079390526	0.2522761226	-91.60479736	1.0
[Spine1]
55	0	2.140589952	0	8.774073601	0.4986537099	1.153376579	1.0
56	0	2.140589952	0	10.2021389	0.3870506585	1.680606484	1.0
57	0	2.140589952	0	10.06859493	0.4870243073	1.713058233	1.0
58	0	2.140589952	0	9.502887726	0.6170948744	1.801912546	1.0
59	0	2.140589952	0	8.140159607	0.5816183686	1.942278504	1.0
60	0	2.140589952	0	7.051933765	0.5095716119	1.99167192	1.0
61	0	2.140589952	0	6.571103096	0.3414600492	2.438047409	1.0
62	0	2.140589952	0	6.728907585	-0.05925890058	3.090067625	1.0
[Neck]
55	0	2.32246995	0	-11.92781639	11.32325935	-89.67295837	1.0
56	0	2.32246995	0	-13.19470406	10.84506702	-90.10037994	1.0
57	0	2.32246995	0	-13.61660576	10.43559456	-90.2669754	1.0
58	0	2.32246995	0	-13.94095421	10.11611938	-90.71420288	1.0
59	0	2.32246995	0	-14.14074326	9.747733116	-90.95347595	1.0
60	0	2.32246995	0	-15.06039238	9.474336624	-90.3986969	1.0
61	0	2.32246995	0	-15.73989296	9.140994072	-90.11508942	1.0
62	0	2.32246995	0	-15.99056053	8.895563126	-90.08551788	1.0
[Head]
55	0	1.409579992	0.1818799973	-5.8966012	4.366670132	-93.57226563	1.0
56	0	1.409579992	0.1818799973	-5.769543648	3.931516409	-93.96879578	1.0
57	0	1.409579992	0.1818799973	-5.577859402	3.530029535	-94.01093292	1.0
58	0	1.409579992	0.1818799973	-5.487714767	3.189876556	-93.50643921	1.0
59	0	1.409579992	0.1818799973	-4.959948063	2.811524868	-93.12898254	1.0
60	0	1.409579992	0.1818799973	-4.203298569	2.535797119	-93.25856018	1.0
61	0	1.409579992	0.1818799973	-3.933171272	2.206326485	-93.52892303	1.0
62	0	1.409579992	0.1818799973	-4.704088211	1.961849332	-93.98329163	1.0
[LeftShoulder]
55	0.3668199778	1.946700096	-0.02662999928	-15.57925129	-13.32211685	-2.246030569	1.0
56	0.3668199778	1.946700096	-0.02662999928	-15.83605289	-13.8348484	-1.530445695	1.0
57	0.3668199778	1.946700096	-0.02662999928	-15.22991943	-13.94721222	-0.8872036934	1.0
58	0.3668199778	1.946700096	-0.02662999928	-14.2022934	-13.47752857	-0.08592585474	1.0
59	0.3668199778	1.946700096	-0.02662999928	-13.12310791	-13.35861778	0.7839019895	1.0
60	0.3668199778	1.946700096	-0.02662999928	-11.8288393	-13.43270302	1.631175041	1.0
61	0.3668199778	1.946700096	-0.02662999928	-11.35531998	-13.60898018	2.144501925	1.0
62	0.3668199778	1.946700096	-0.02662999928	-11.97041416	-13.87915802	2.670258999	1.0
[LeftArm]
55	1.140689969	0	0	36.76122284	13.60841656	-71.86993408	1.0
56	1.140689969	0	0	34.19361115	15.46825123	-69.58599854	1.0
57	1.140689969	0	0	31.88188362	17.7131176	-68.2223587	1.0
58	1.140689969	0	0	27.14723396	19.58469009	-67.6129837	1.0
59	1.140689969	0	0	24.60051346	21.86013031	-67.58158875	1.0
60	1.140689969	0	0	22.89066315	23.27002716	-67.84680939	1.0
61	1.140689969	0	0	21.5141468	24.39126778	-67.96251678	1.0
62	1.140689969	0	0	20.39656258	25.31069756	-67.96185303	1.0
[LeftForeArm]
55	2.749800205	0	0	-11.53767681	-7.790478706	-1.635487676	1.0
56	2.749800205	0	0	-10.24226284	-5.930505276	-2.751370907	1.0
57	2.749800205	0	0	-10.19939709	-5.800601006	-2.75061512	1.0
58	2.749800205	0	0	-9.316020966	-6.878238678	-2.975395918	1.0
59	2.749800205	0	0	-10.43072796	-8.744194984	-2.920412064	1.0
60	2.749800205	0	0	-11.37760639	-9.795125961	-3.165554523	1.0
61	2.749800205	0	0	-11.43186665	-9.971948624	-3.494207382	1.0
62	2.749800205	0	0	-10.59377575	-9.439662933	-4.570767403	1.0
[LeftHand]
55	2.295179844	0	0	-11.68171024	-2.494583845	1.495648265	1.0
56	2.295179844	0	0	-10.41884327	-1.894555449	2.050344944	1.0
57	2.295179844	0	0	-10.39381981	-1.327455401	4.813591003	1.0
58	2.295179844	0	0	-9.556102753	-1.563161135	4.484172821	1.0
59	2.295179844	0	0	-10.70552349	-2.856180668	2.087512255	1.0
60	2.295179844	0	0	-11.61624146	-4.243073463	-0.889402926	1.0
61	2.295179844	0	0	-11.56641102	-4.715026379	-4.13954401	1.0
62	2.295179844	0	0	-10.79844284	-4.160121441	-4.762599468	1.0
[RightShoulder]
55	-0.3601199985	1.946700096	-0.02662999928	-7.667161942	2.291377783	175.006012	1.0
56	-0.3601199985	1.946700096	-0.02662999928	-8.257575989	2.769627094	175.0622559	1.0
57	-0.3601199985	1.946700096	-0.02662999928	-8.222626686	3.166797876	175.1529846	1.0
58	-0.3601199985	1.946700096	-0.02662999928	-8.662994385	3.560517788	174.505661	1.0
59	-0.3601199985	1.946700096	-0.02662999928	-8.319763184	3.573613644	174.4260559	1.0
60	-0.3601199985	1.946700096	-0.02662999928	-8.443099976	3.461952448	174.4020081	1.0
61	-0.3601199985	1.946700096	-0.02662999928	-7.836243629	2.949057341	174.1784515	1.0
62	-0.3601199985	1.946700096	-0.02662999928	-8.667776108	2.645685911	174.0396271	1.0
[RightArm]
55	-1.140689969	0	0	59.42731476	3.578942776	-96.49842072	1.0
56	-1.140689969	0	0	63.83537292	9.045073509	-96.65304565	1.0
57	-1.140689969	0	0	67.65339661	13.60875988	-97.01251221	1.0
58	-1.140689969	0	0	69.31222534	16.2505703	-97.17311859	1.0
59	-1.140689969	0	0	69.84508514	18.00977325	-98.30548859	1.0
60	-1.140689969	0	0	69.88539886	18.62427902	-99.44942474	1.0
61	-1.140689969	0	0	69.1734848	19.65852165	-100.6018143	1.0
62	-1.140689969	0	0	68.79524994	19.53369904	-101.4763336	1.0
[RightForeArm]
55	-2.749800205	0	0	-0.09115082026	13.83444405	177.2892151	1.0
56	-2.749800205	0	0	1.922974586	15.37964821	177.5953979	1.0
57	-2.749800205	0	0	5.399915695	17.79873276	177.7320404	1.0
58	-2.749800205	0	0	6.675450802	22.43486786	177.0295105	1.0
59	-2.749800205	0	0	6.794243813	28.885355	175.8208923	1.0
60	-2.749800205	0	0	6.578010082	36.52119064	174.2133179	1.0
61	-2.749800205	0	0	6.406656265	44.7668457	173.0255585	1.0
62	-2.749800205	0	0	5.233236313	51.93788528	172.1029205	1.0
[RightHand]
55	-2.295179844	0	0	-0.3175987005	8.880046844	172.8582611	1.0
56	-2.295179844	0	0	1.484210491	8.904940605	170.2108459	1.0
57	-2.295179844	0	0	4.830088615	9.607535362	169.0270386	1.0
58	-2.295179844	0	0	6.137658119	10.76103783	168.0579376	1.0
59	-2.295179844	0	0	6.593599796	12.38501549	168.2688599	1.0
60	-2.295179844	0	0	7.364257813	13.06545067	170.2293549	1.0
61	-2.295179844	0	0	8.38704586	13.11496067	172.2259827	1.0
62	-2.295179844	0	0	7.97917223	14.13762379	171.1356506	1.0
[LeftUpLeg]
55	0.9094099998	0	0	-17.99064636	-0.2007097304	87.04364014	1.0
56	0.9094099998	0	0	-14.45330715	-0.8445311785	86.55276489	1.0
57	0.9094099998	0	0	-11.0366106	0.3693431318	86.3602066	1.0
58	0.9094099998	0	0	-6.739537239	1.228065848	86.44764709	1.0
59	0.9094099998	0	0	-2.034861088	0.8199440241	87.0384903	1.0
60	0.9094099998	0	0	2.773255348	2.871210337	87.56658936	1.0
61	0.9094099998	0	0	7.938847542	0.7522713542	87.17180634	1.0
62	0.9094099998	0	0	10.89009094	-1.325349927	86.60751343	1.0
[LeftLeg]
55	0	-4.498080254	0	48.52052689	-19.24899673	62.94700623	1.0
56	0	-4.498080254	0	45.81010437	-19.33585739	63.57778931	1.0
57	0	-4.498080254	0	41.54187393	-20.32101822	67.0869751	1.0
58	0	-4.498080254	0	33.56682587	-18.40886688	73.76190186	1.0
59	0	-4.498080254	0	24.12688446	-15.6763401	79.08164978	1.0
60	0	-4.498080254	0	15.03090572	-14.17094135	82.983284	1.0
61	0	-4.498080254	0	6.268778324	-8.376274109	85.63191223	1.0
62	0	-4.498080254	0	4.50133419	-7.576882362	85.79207611	1.0
[LeftFoot]
55	0	-3.729400158	0	-68.85389709	123.0909958	0.1121883988	1.0
56	0	-3.729400158	0	-71.61203003	123.9125824	-1.823395252	1.0
57	0	-3.729400158	0	-75.70176697	123.8854446	-6.277801514	1.0
58	0	-3.729400158	0	-80.74669647	118.7158661	-12.17215633	1.0
59	0	-3.729400158	0	-87.14367676	116.8667526	-20.34762383	1.0
60	0	-3.729400158	0	-92.07889557	116.5108337	-28.42883492	1.0
61	0	-3.729400158	0	-96.53460693	114.0677414	-34.88604736	1.0
62	0	-3.729400158	0	-98.51123047	114.0406494	-35.13774872	1.0
[LeftToeBase]
55	0	-0.5911099911	1.364109993	0	0	0	1.0
56	0	-0.5911099911	1.364109993	0	0	0	1.0
57	0	-0.5911099911	1.364109993	0	0	0	1.0
58	0	-0.5911099911	1.364109993	0	0	0	1.0
59	0	-0.5911099911	1.364109993	0	0	0	1.0
60	0	-0.5911099911	1.364109993	0	0	0	1.0
61	0	-0.5911099911	1.364109993	0	0	0	1.0
62	0	-0.5911099911	1.364109993	0	0	0	1.0
[RightUpLeg]
55	-0.9094099998	0	0	-7.337089539	-13.09244537	88.58216858	1.0
56	-0.9094099998	0	0	-12.28347397	-12.8217907	90.12345123	1.0
57	-0.9094099998	0	0	-17.95727348	-12.48949718	92.94345856	1.0
58	-0.9094099998	0	0	-22.97498703	-12.53445339	95.35110474	1.0
59	-0.9094099998	0	0	-25.96705627	-12.30959511	97.21952057	1.0
60	-0.9094099998	0	0	-27.00287437	-13.20707321	98.43135834	1.0
61	-0.9094099998	0	0	-25.42337227	-12.86362171	97.30464935	1.0
62	-0.9094099998	0	0	-23.40787697	-13.15861607	97.08201599	1.0
[RightLeg]
55	0	-4.498080254	0	61.44573212	4.007780075	71.03845215	1.0
56	0	-4.498080254	0	66.10358429	4.856153488	67.47970581	1.0
57	0	-4.498080254	0	66.38495636	5.248062134	65.52848053	1.0
58	0	-4.498080254	0	63.91253281	8.033399582	76.02531433	1.0
59	0	-4.498080254	0	54.02460098	-0.6992512941	69.95297241	1.0
60	0	-4.498080254	0	40.02380753	-1.523150086	77.74115753	1.0
61	0	-4.498080254	0	23.15780258	0.8052965403	87.7060318	1.0
62	0	-4.498080254	0	9.852981567	-3.164191723	87.63518524	1.0
[RightFoot]
55	0	-3.729400158	0	85.64442444	51.33612823	122.7433167	1.0
56	0	-3.729400158	0	85.99529266	53.99476624	123.8029785	1.0
57	0	-3.729400158	0	83.86773682	55.76525879	123.6591034	1.0
58	0	-3.729400158	0	56.4434166	57.23149109	97.93733215	1.0
59	0	-3.729400158	0	69.49594116	58.54442596	115.212677	1.0
60	0	-3.729400158	0	59.37180328	59.27996063	106.2444611	1.0
61	0	-3.729400158	0	50.2657547	61.85071945	94.07657623	1.0
62	0	-3.729400158	0	72.87368774	60.32142258	111.04216	1.0
[RightToeBase]
55	0	-0.5911099911	1.364109993	0	0	0	1.0
56	0	-0.5911099911	1.364109993	0	0	0	1.0
57	0	-0.5911099911	1.364109993	0	0	0	1.0
58	0	-0.5911099911	1.364109993	0	0	0	1.0
59	0	-0.5911099911	1.364109993	0	0	0	1.0
60	0	-0.5911099911	1.364109993	0	0	0	1.0
61	0	-0.5911099911	1.364109993	0	0	0	1.0
62	0	-0.5911099911	1.364109993	0	0	0	1.0
[EndOfFile]
